{"glyphs":{":":{"x_min":0,"x_max":269,"ha":269,"o":"m 222 381 q 222 347 198 322 q 175 297 144 297 q 116 297 99 315 q 81 333 81 361 q 81 395 104 420 q 128 445 160 445 q 188 445 205 427 q 222 409 222 381 z m 159 76 q 159 42 135 17 q 112 -9 82 -9 q 54 -9 36 9 q 18 27 18 56 q 18 90 41 115 q 64 140 96 140 q 124 140 142 122 q 159 104 159 76 z"},"$":{"x_min":0,"x_max":495,"ha":495,"o":"m 243 428 l 284 631 q 243 626 219 599 q 195 572 195 532 q 195 506 207 481 q 218 456 243 428 z m 201 30 q 243 35 268 64 q 294 94 294 137 q 294 161 282 186 q 270 211 244 239 z m 174 -105 l 135 -105 l 155 -8 q 91 -2 52 32 q 13 66 13 115 q 13 139 29 156 q 45 172 70 172 q 90 172 104 154 q 117 136 117 107 q 117 104 117 99 q 116 95 116 94 q 116 66 127 52 q 138 37 162 30 l 212 277 q 152 333 127 380 q 101 428 101 481 q 101 566 152 618 q 204 669 290 669 l 292 669 l 302 717 l 341 717 l 331 668 q 388 659 424 625 q 459 590 459 546 q 459 514 444 495 q 428 475 404 475 q 382 475 368 492 q 355 508 355 536 q 355 542 357 556 q 359 569 359 575 q 359 595 350 607 q 341 620 322 625 l 275 394 q 342 329 373 275 q 403 222 403 170 q 403 92 345 42 q 288 -7 193 -9 z"},"?":{"x_min":0,"x_max":422,"ha":422,"o":"m 173 76 q 173 42 149 17 q 125 -9 95 -9 q 67 -9 50 9 q 32 27 32 56 q 32 90 55 115 q 79 140 110 140 q 138 140 155 122 q 173 104 173 76 z m 112 203 q 113 280 129 329 q 146 378 179 402 q 209 424 257 447 q 265 451 269 453 q 272 455 276 457 q 336 486 336 521 q 336 545 319 561 q 301 576 274 576 q 250 576 207 562 q 164 549 145 549 q 119 549 104 563 q 89 578 89 603 q 89 639 121 661 q 153 683 207 683 q 292 683 339 640 q 386 596 386 519 q 386 443 355 390 q 325 336 261 300 q 244 291 213 278 q 182 266 173 258 q 163 249 158 236 q 153 224 151 204 z"},"<":{"x_min":0,"x_max":833,"ha":833,"o":"m 704 583 l 704 476 l 268 298 l 704 120 l 704 13 l 129 250 l 129 347 z"},"'":{"x_min":0,"x_max":178,"ha":178,"o":"m 99 416 l 79 416 l 40 641 q 39 647 39 651 q 38 656 38 659 q 38 685 52 700 q 65 715 89 715 q 112 715 126 701 q 139 687 139 661 q 139 653 139 649 q 139 645 138 641 z"},"=":{"x_min":0,"x_max":833,"ha":833,"o":"m 124 242 l 709 242 l 709 145 l 124 145 z m 124 452 l 709 452 l 709 355 l 124 355 z"},"a":{"x_min":0,"x_max":472,"ha":472,"o":"m 226 163 l 272 378 l 264 378 q 189 378 136 313 q 83 249 83 160 q 83 129 95 110 q 107 90 125 90 q 146 90 184 125 l 185 126 z m 215 113 l 164 66 q 114 20 91 5 q 67 -10 50 -10 q 20 -10 2 19 q -16 47 -16 95 q -16 176 25 249 q 65 322 144 380 q 187 412 240 428 q 293 445 352 445 q 367 445 400 443 l 403 443 l 329 103 q 328 97 327 91 q 326 85 326 79 q 326 74 328 71 q 331 68 334 68 q 341 68 359 82 q 376 95 401 119 l 420 101 q 344 31 313 11 q 281 -10 258 -10 q 233 -10 221 6 q 209 22 209 56 q 209 67 210 81 q 212 94 215 113 z"},"L":{"x_min":0,"x_max":657,"ha":657,"o":"m -48 0 l -38 46 q 18 47 43 68 q 68 89 82 152 l 164 519 q 167 532 168 543 q 170 554 170 563 q 170 598 149 611 q 128 625 73 625 l 84 669 l 437 669 l 427 623 q 371 622 347 601 q 322 581 308 517 l 227 157 q 224 141 222 126 q 220 112 220 102 q 220 74 243 62 q 265 50 320 50 q 401 50 460 75 q 520 101 569 156 l 624 156 l 569 0 z"},"3":{"x_min":0,"x_max":495,"ha":495,"o":"m 142 333 l 152 387 q 231 434 271 479 q 311 524 311 566 q 311 584 297 599 q 282 613 264 613 q 238 613 211 600 q 184 587 153 559 l 129 587 q 167 634 210 657 q 253 680 305 680 q 365 680 400 652 q 435 625 435 578 q 435 535 400 499 q 365 464 283 425 q 341 416 368 386 q 395 357 395 303 q 395 249 371 194 q 348 139 305 94 q 256 42 200 14 q 145 -13 89 -13 q 42 -13 18 1 q -7 15 -7 42 q -7 67 8 84 q 22 100 44 100 q 54 100 64 97 q 74 94 82 89 q 91 83 107 72 q 141 48 158 48 q 177 48 191 59 q 205 69 220 96 q 240 132 251 176 q 262 219 262 262 q 262 307 247 330 q 232 353 202 353 q 191 353 177 348 q 164 344 142 333 z"},";":{"x_min":0,"x_max":269,"ha":269,"o":"m 219 379 q 219 345 196 320 q 172 295 141 295 q 113 295 95 313 q 77 331 77 359 q 77 393 101 418 q 124 443 156 443 q 184 443 202 425 q 219 407 219 379 z m -52 -142 q 3 -125 29 -98 q 55 -71 55 -31 q 55 -9 36 28 q 16 66 16 87 q 16 110 35 126 q 54 142 82 142 q 120 142 140 115 q 161 88 161 40 q 161 -32 105 -93 q 50 -154 -37 -174 z"},"J":{"x_min":0,"x_max":387,"ha":387,"o":"m 169 519 q 172 533 173 544 q 175 555 175 563 q 175 597 155 611 q 135 624 83 625 l 92 669 l 434 669 l 425 625 q 374 624 351 606 q 328 588 318 540 l 225 109 l 224 104 q 189 -62 142 -127 q 102 -184 38 -216 q -26 -247 -102 -247 q -154 -247 -183 -235 q -213 -222 -213 -201 q -213 -178 -185 -145 q -156 -113 -131 -113 q -118 -113 -102 -121 q -86 -129 -64 -148 q -59 -152 -50 -161 q -28 -181 -12 -181 q 29 -181 51 -53 q 62 10 70 49 z"},"V":{"x_min":0,"x_max":671,"ha":671,"o":"m 95 -12 l 120 524 l 120 539 q 120 583 103 601 q 85 619 40 625 l 50 669 l 366 669 l 357 625 q 304 622 283 602 q 263 583 261 531 l 243 141 l 586 530 q 599 545 604 557 q 610 569 610 581 q 610 601 596 611 q 582 621 548 625 l 557 669 l 775 669 l 765 625 q 725 616 661 541 q 648 526 642 519 l 173 -12 z"},"\"":{"x_min":0,"x_max":345,"ha":345,"o":"m 265 416 l 245 416 l 206 641 q 205 647 205 651 q 204 656 204 659 q 204 685 218 700 q 231 715 255 715 q 279 715 292 700 q 306 686 306 661 q 306 658 306 654 q 305 649 304 641 z m 99 416 l 79 416 l 40 641 q 40 645 39 648 q 39 652 39 659 q 39 685 53 700 q 66 715 89 715 q 112 715 126 701 q 139 687 139 661 q 139 653 139 649 q 139 645 138 641 z"},"7":{"x_min":0,"x_max":495,"ha":495,"o":"m 110 -9 l 392 550 l 232 550 q 163 550 138 531 q 114 513 102 456 l 67 456 l 119 669 l 494 669 l 494 625 l 210 -9 z"},"S":{"x_min":0,"x_max":574,"ha":574,"o":"m -3 41 l 45 212 l 96 214 q 101 122 137 79 q 174 35 247 35 q 302 35 337 62 q 372 88 372 130 q 372 154 359 177 q 346 199 307 235 q 292 249 263 274 q 118 403 118 489 q 118 571 178 627 q 238 683 327 683 q 358 683 404 671 q 450 659 467 657 q 473 659 484 664 q 506 673 516 676 l 542 676 l 512 480 l 468 485 q 455 558 417 596 q 380 634 323 634 q 283 634 260 612 q 238 591 238 554 q 238 501 343 407 q 357 395 364 388 q 444 315 468 272 q 492 230 492 179 q 492 97 419 40 q 347 -17 238 -17 q 186 -17 125 -2 q 64 12 -3 41 z"},"}":{"x_min":0,"x_max":500,"ha":500,"o":"m 84 740 q 199 740 241 705 q 283 669 283 571 l 283 477 q 283 396 311 366 q 338 336 414 329 l 414 292 q 338 285 311 255 q 283 225 283 144 l 283 50 q 283 -47 242 -83 q 200 -119 90 -119 l 84 -119 l 84 -90 q 142 -89 164 -63 q 186 -38 186 39 l 186 105 q 186 215 212 255 q 238 294 308 310 q 238 326 212 366 q 186 406 186 516 l 186 581 q 186 657 164 683 q 142 709 84 710 z"},"Z":{"x_min":0,"x_max":727,"ha":727,"o":"m -20 0 l -20 50 l 533 619 l 454 619 q 334 619 275 589 q 216 558 171 481 l 129 481 l 167 669 l 722 669 l 722 622 l 168 50 l 321 50 q 429 50 499 85 q 569 121 616 199 l 660 199 l 602 0 z"},"x":{"x_min":0,"x_max":495,"ha":495,"o":"m 6 146 l 30 146 q 36 127 47 118 q 57 109 73 109 q 96 109 121 127 q 145 146 175 186 l 146 254 q 142 264 134 283 q 103 357 86 357 q 78 357 68 347 q 58 337 44 315 l 22 326 q 48 385 79 415 q 109 444 144 444 q 187 444 229 345 q 236 330 239 322 l 253 291 l 272 320 q 315 383 350 413 q 384 444 412 444 q 434 444 448 424 q 463 404 463 373 q 463 357 458 341 q 454 325 444 310 l 422 310 q 420 323 408 331 q 396 338 376 338 q 347 338 320 319 q 293 299 266 259 l 296 188 q 299 181 304 168 q 335 90 355 90 q 366 90 375 101 q 385 111 401 141 l 425 128 q 391 52 363 22 q 334 -9 301 -9 q 275 -9 258 8 q 241 25 215 87 l 187 152 l 159 115 q 101 37 73 14 q 45 -9 18 -9 q -2 -9 -14 4 q -26 17 -26 40 q -26 62 -18 90 q -10 117 6 146 z"},")":{"x_min":0,"x_max":431,"ha":431,"o":"m -50 -246 q 64 -122 123 36 q 181 193 181 377 q 181 455 167 526 q 154 598 126 666 l 157 683 q 225 579 256 479 q 288 379 288 272 q 288 110 210 -25 q 132 -160 -28 -274 z"},"&":{"x_min":0,"x_max":840,"ha":840,"o":"m 273 388 q 209 406 180 435 q 151 463 151 508 q 151 584 223 631 q 295 678 414 678 q 497 678 552 649 q 608 619 608 580 q 608 557 593 542 q 577 528 553 528 q 516 528 498 571 q 493 584 489 591 q 476 617 458 629 q 440 640 413 640 q 359 640 319 598 q 280 555 280 496 q 280 454 301 430 q 322 406 360 406 l 370 406 q 389 406 395 401 q 402 396 402 383 q 402 368 394 362 q 386 355 368 355 q 364 355 350 356 q 335 357 326 357 q 273 357 240 318 q 206 278 206 216 q 206 137 257 89 q 307 41 391 41 q 433 41 473 54 q 513 67 550 92 q 584 116 603 146 q 622 176 622 208 q 622 250 592 272 q 561 295 504 295 q 482 295 471 288 q 459 281 459 268 q 459 262 473 250 q 487 238 487 225 q 487 208 476 197 q 465 186 449 186 q 430 186 416 201 q 402 215 402 236 q 402 295 445 331 q 488 366 560 366 q 607 366 662 361 q 718 355 725 355 q 741 355 748 360 q 756 364 756 374 q 756 378 742 392 q 729 406 729 420 q 729 436 740 446 q 750 456 767 456 q 790 456 802 441 q 813 426 813 397 q 813 345 775 315 q 737 286 669 286 l 649 286 l 639 286 q 655 265 663 247 q 670 228 670 209 q 670 183 658 155 q 646 126 623 99 q 577 44 511 16 q 445 -12 362 -12 q 225 -12 144 44 q 64 100 64 194 q 64 267 115 314 q 167 362 273 388 z"},"_":{"x_min":0,"x_max":500,"ha":500,"o":"m 0 -136 l 500 -136 l 500 -236 l 0 -236 z"},"v":{"x_min":0,"x_max":463,"ha":463,"o":"m 24 305 l 5 319 q 49 380 89 412 q 129 445 159 445 q 182 445 194 431 q 206 417 206 390 q 206 381 204 365 q 201 348 197 326 l 157 98 q 157 96 156 93 q 156 89 156 81 q 156 73 158 70 q 161 67 167 67 q 179 67 199 84 q 219 102 247 137 q 280 178 300 225 q 320 273 320 307 q 320 323 305 331 q 302 333 301 333 q 287 340 282 349 q 277 357 277 371 q 277 399 303 422 q 329 445 362 445 q 392 445 409 423 q 427 401 427 364 q 427 309 386 245 q 345 180 260 101 q 201 45 156 17 q 110 -11 81 -11 q 62 -11 49 7 q 36 24 36 52 q 36 61 37 71 q 39 82 42 99 l 82 339 q 83 341 83 344 q 83 346 83 350 q 83 354 82 357 q 81 359 79 359 q 71 359 39 322 q 29 311 24 305 z"},"O":{"x_min":0,"x_max":840,"ha":840,"o":"m 183 264 q 183 156 237 94 q 291 32 383 32 q 437 32 485 58 q 533 84 572 134 q 612 186 633 256 q 655 325 655 401 q 655 512 603 573 q 550 635 456 635 q 402 635 360 614 q 318 592 280 546 q 261 521 243 489 q 226 457 213 419 q 198 377 191 338 q 183 299 183 264 z m 398 -15 q 232 -15 135 73 q 37 161 37 309 q 37 382 64 448 q 91 515 141 565 q 200 624 277 653 q 354 682 450 682 q 611 682 707 593 q 803 504 803 356 q 803 283 776 215 q 748 147 699 100 q 638 42 563 13 q 489 -15 398 -15 z"},"(":{"x_min":0,"x_max":431,"ha":431,"o":"m 431 655 q 317 530 259 374 q 201 217 201 33 q 201 -45 215 -117 q 228 -189 256 -257 l 225 -274 q 158 -170 126 -70 q 94 30 94 137 q 94 300 172 435 q 250 570 409 683 z"},"C":{"x_min":0,"x_max":764,"ha":764,"o":"m 601 0 l 584 0 q 571 5 560 8 q 549 11 538 11 q 517 11 456 -1 q 395 -14 356 -14 q 309 -14 265 -3 q 222 9 183 31 q 116 70 78 135 q 41 200 41 278 q 41 363 76 440 q 112 516 176 570 q 241 625 325 653 q 410 681 509 681 q 576 681 633 670 q 690 659 735 638 l 697 467 l 651 467 q 649 544 605 588 q 561 632 485 632 q 430 632 383 611 q 335 589 295 546 q 246 494 220 418 q 194 343 194 252 q 194 151 242 94 q 291 37 374 37 q 442 37 502 71 q 562 104 612 171 l 659 171 z"},"W":{"x_min":0,"x_max":952,"ha":952,"o":"m 87 -12 l 126 524 q 126 527 126 533 q 127 539 127 541 q 127 582 107 601 q 87 620 39 625 l 50 669 l 362 669 l 352 625 q 304 619 286 600 q 267 582 264 531 l 236 139 l 486 487 l 489 524 q 489 527 490 532 q 490 538 490 540 q 490 581 473 601 q 456 621 418 625 l 428 669 l 732 669 l 722 625 q 666 622 644 604 q 623 585 619 531 l 591 140 l 835 494 q 852 519 860 539 q 869 560 869 575 q 869 597 851 609 q 832 622 796 625 l 806 669 l 1035 669 l 1025 625 q 982 615 911 512 q 899 496 893 487 l 543 -12 l 450 -12 l 478 395 l 183 -12 z"},"A":{"x_min":0,"x_max":713,"ha":713,"o":"m 437 322 l 425 557 l 256 322 z m -86 0 l -76 46 q -6 49 82 170 l 90 182 l 454 681 l 555 681 l 584 147 q 587 89 609 68 q 631 47 686 46 l 676 0 l 329 0 l 339 46 l 351 46 q 406 46 426 63 q 446 80 446 127 q 446 139 446 146 q 445 152 445 158 l 440 260 l 212 260 l 133 152 q 120 133 114 119 q 108 105 108 91 q 108 69 125 59 q 142 48 182 46 l 173 0 z"},"f":{"x_min":0,"x_max":295,"ha":295,"o":"m 93 387 l 15 387 l 15 408 q 50 415 70 422 q 90 428 102 436 q 127 569 194 642 q 261 714 359 714 q 408 714 433 698 q 458 683 458 652 q 458 629 444 615 q 430 600 407 600 q 387 600 370 608 q 352 616 333 633 q 327 639 317 648 q 296 670 284 670 q 258 670 245 589 q 242 569 240 558 l 218 431 l 292 431 l 283 387 l 209 387 l 159 92 q 130 -74 59 -158 q -13 -241 -128 -241 q -179 -241 -206 -224 q -232 -208 -232 -175 q -232 -153 -217 -139 q -202 -125 -178 -125 q -160 -125 -146 -132 q -132 -139 -109 -164 q -88 -188 -78 -194 q -68 -200 -59 -200 q -34 -200 -18 -172 q -2 -144 11 -72 z"},"Q":{"x_min":0,"x_max":840,"ha":840,"o":"m 763 -124 q 732 -152 693 -168 q 654 -183 612 -183 q 575 -183 534 -170 q 492 -156 447 -130 q 414 -111 360 -67 q 305 -23 278 -8 q 264 0 215 23 q 167 45 143 66 q 88 114 63 173 q 37 232 37 307 q 37 382 64 448 q 90 515 141 565 q 200 624 277 653 q 354 682 451 682 q 611 682 707 593 q 803 504 803 357 q 803 220 720 122 q 637 24 496 -5 q 561 -62 602 -86 q 642 -109 674 -109 q 688 -109 706 -103 q 723 -98 743 -86 z m 183 264 q 183 156 237 94 q 291 32 383 32 q 437 32 485 58 q 533 84 572 134 q 612 186 633 256 q 655 325 655 401 q 655 512 603 573 q 550 635 456 635 q 402 635 360 614 q 318 592 280 546 q 261 521 243 489 q 226 457 213 419 q 198 377 191 338 q 183 299 183 264 z"},"w":{"x_min":0,"x_max":720,"ha":720,"o":"m 21 301 l 4 315 q 48 383 85 414 q 122 446 158 446 q 181 446 194 432 q 206 418 206 393 q 206 382 204 366 q 203 351 199 333 l 159 115 q 159 113 158 111 q 158 108 158 103 q 158 94 161 91 q 163 88 170 88 q 184 88 220 129 q 257 170 306 242 l 331 380 q 332 383 333 388 q 342 441 372 441 l 427 441 q 442 441 448 436 q 455 431 455 418 q 455 415 453 403 q 452 396 451 391 l 400 99 q 399 97 399 94 q 399 92 399 87 q 399 77 403 72 q 408 67 417 67 q 434 67 457 86 q 480 106 507 142 q 544 191 563 231 q 582 272 582 301 q 582 312 579 320 q 575 328 569 331 q 566 333 562 334 q 537 348 537 370 q 537 398 563 422 q 590 446 624 446 q 654 446 671 425 q 688 403 688 366 q 688 316 655 262 q 623 208 541 128 q 471 59 420 25 q 369 -10 337 -10 q 309 -10 295 9 q 281 28 281 66 q 281 78 283 100 q 286 123 294 175 q 224 81 171 35 q 119 -10 80 -10 q 57 -10 45 3 q 33 17 33 42 q 33 54 34 66 q 36 78 38 91 l 83 345 q 83 346 84 347 q 84 349 84 351 q 84 355 82 356 q 81 358 77 358 q 70 358 57 344 q 43 331 21 301 z"},"-":{"x_min":0,"x_max":389,"ha":389,"o":"m 18 159 l 41 269 l 314 269 l 291 159 z"},"E":{"x_min":0,"x_max":687,"ha":687,"o":"m -48 0 l -38 46 q 19 47 44 69 q 69 91 82 152 l 160 519 q 163 533 165 544 q 166 555 166 563 q 166 597 146 610 q 126 624 73 625 l 82 669 l 679 669 l 645 503 l 592 503 l 592 518 q 592 572 562 596 q 533 619 463 619 l 325 619 l 272 366 l 402 366 q 457 366 486 382 q 514 397 525 433 l 569 433 l 526 219 l 479 219 q 479 223 480 229 q 483 254 483 262 q 483 290 460 303 q 438 316 391 316 l 261 316 l 227 157 q 224 140 222 125 q 220 111 220 102 q 220 74 243 62 q 265 50 320 50 q 404 50 466 78 q 527 106 579 169 l 628 169 l 569 0 z"},"s":{"x_min":0,"x_max":352,"ha":352,"o":"m -31 55 q -31 83 -15 100 q 0 117 25 117 q 52 117 96 78 q 103 72 107 68 q 121 56 136 50 q 151 43 164 43 q 179 43 186 51 q 194 58 194 72 q 194 94 143 147 l 138 153 l 138 153 q 49 247 49 302 q 49 358 100 401 q 151 443 219 443 q 259 443 283 424 q 307 405 307 374 q 307 348 292 331 q 276 314 251 314 q 233 314 220 322 q 208 331 197 349 q 194 354 189 364 q 176 394 157 394 q 145 394 138 386 q 132 378 132 364 q 132 336 188 273 q 200 260 206 253 q 209 250 215 242 q 266 185 266 137 q 266 72 212 30 q 157 -13 72 -13 q 23 -13 -4 5 q -31 22 -31 55 z"},">":{"x_min":0,"x_max":833,"ha":833,"o":"m 129 583 l 704 347 l 704 250 l 129 13 l 129 120 l 566 298 l 129 476 z"},"l":{"x_min":0,"x_max":285,"ha":285,"o":"m 222 110 q 179 51 142 22 q 104 -7 72 -7 q 44 -7 31 8 q 17 23 17 54 q 17 62 19 73 q 20 84 24 102 l 124 592 q 125 599 126 602 q 126 604 126 607 q 126 618 121 624 q 117 630 108 630 q 102 630 94 628 q 85 626 76 623 l 66 649 q 161 686 200 699 q 240 713 254 713 q 258 713 261 708 q 264 704 264 697 q 264 690 263 682 q 262 674 260 665 l 142 98 q 142 96 141 93 q 141 90 141 86 q 141 81 142 79 q 143 78 144 78 q 154 78 169 91 q 184 103 203 128 z"},"8":{"x_min":0,"x_max":495,"ha":495,"o":"m 291 406 q 329 446 347 484 q 366 521 366 558 q 366 599 347 622 q 327 644 292 644 q 257 644 234 615 q 211 586 211 542 q 211 508 229 477 q 248 445 291 406 z m 206 306 q 167 271 146 226 q 125 182 125 135 q 125 86 146 58 q 168 30 205 30 q 246 30 271 60 q 297 90 297 137 q 297 178 274 220 q 252 261 206 306 z m 178 337 q 138 387 121 423 q 104 460 104 496 q 104 577 164 630 q 223 682 318 682 q 389 682 430 647 q 471 612 471 552 q 471 494 434 451 q 396 409 316 378 q 364 326 387 280 q 410 233 410 188 q 410 146 391 107 q 372 67 338 37 q 309 12 272 -1 q 235 -13 189 -13 q 114 -13 68 28 q 22 69 22 136 q 22 192 58 238 q 94 285 178 337 z"},"\\":{"x_min":0,"x_max":278,"ha":278,"o":"m 49 683 l 109 683 l 241 -93 l 183 -93 z"},"e":{"x_min":0,"x_max":378,"ha":378,"o":"m 127 231 q 181 243 213 281 q 245 318 245 367 q 245 386 237 396 q 229 406 215 406 q 190 406 168 363 q 147 320 127 231 z m 321 83 q 255 33 206 11 q 156 -11 112 -11 q 53 -11 22 24 q -8 59 -8 128 q -8 186 15 243 q 38 300 80 348 q 122 395 167 420 q 212 445 255 445 q 297 445 323 423 q 348 400 348 364 q 348 310 293 271 q 239 231 120 201 q 118 188 116 174 q 115 160 115 146 q 115 102 135 78 q 154 55 192 55 q 214 55 243 66 q 271 78 307 101 z"},"b":{"x_min":0,"x_max":447,"ha":447,"o":"m 160 261 l 125 89 q 125 87 124 83 q 121 68 121 61 q 121 42 130 31 q 140 20 156 20 q 175 20 192 35 q 209 50 225 81 q 248 125 260 179 q 273 232 273 286 q 273 319 269 330 q 266 341 256 341 q 243 341 216 319 q 189 297 160 261 z m 173 318 q 248 393 281 418 q 314 444 332 444 q 357 444 377 400 q 398 355 398 295 q 398 236 375 179 q 352 121 309 73 q 274 35 226 11 q 178 -12 134 -12 q 79 -12 45 18 q 12 48 12 98 q 12 109 14 122 q 16 135 19 151 l 110 591 q 111 597 112 603 q 113 608 113 612 q 113 623 110 625 q 108 628 98 628 q 92 628 76 624 l 74 623 l 63 648 q 127 676 177 694 q 228 712 239 712 q 245 712 248 708 q 252 705 252 700 q 252 698 250 687 q 248 676 245 663 z"},"%":{"x_min":0,"x_max":802,"ha":802,"o":"m 564 25 q 603 25 632 81 q 662 136 662 208 q 662 239 648 256 q 635 273 610 273 q 589 273 572 258 q 555 243 541 212 q 528 182 521 149 q 513 115 513 90 q 513 59 526 42 q 540 25 564 25 z m 575 -15 q 506 -15 464 26 q 422 66 422 132 q 422 207 476 259 q 531 312 607 312 q 675 312 716 273 q 756 234 756 169 q 756 95 701 40 q 646 -15 575 -15 z m 183 395 q 221 395 251 451 q 281 506 281 578 q 281 609 268 626 q 254 643 230 643 q 208 643 191 628 q 174 613 160 582 q 147 552 139 519 q 132 485 132 460 q 132 429 145 412 q 159 395 183 395 z m 194 355 q 125 355 83 396 q 41 436 41 502 q 41 577 95 629 q 150 682 226 682 q 294 682 335 644 q 376 605 376 540 q 376 466 321 410 q 266 355 194 355 z m 212 -14 l 152 -14 l 581 681 l 639 681 z"},"m":{"x_min":0,"x_max":782,"ha":782,"o":"m 179 197 l 150 58 q 142 17 133 8 q 125 0 95 0 l 56 0 q 39 0 32 2 q 25 4 25 10 q 25 16 26 25 q 27 34 30 50 l 81 300 q 83 308 84 317 q 86 327 86 328 q 86 336 84 341 q 83 345 79 345 q 69 345 26 290 l 21 283 l -1 298 q 51 370 94 406 q 136 443 168 443 q 191 443 202 429 q 213 416 213 388 q 213 379 212 370 q 211 361 209 351 l 193 266 q 260 353 315 398 q 370 443 409 443 q 432 443 443 430 q 454 417 454 389 q 454 377 452 361 q 450 345 446 327 l 434 266 q 500 353 556 398 q 612 443 653 443 q 678 443 690 427 q 703 411 703 379 q 703 368 701 355 q 700 342 697 330 l 636 100 q 634 94 634 89 q 633 83 633 79 q 633 73 635 70 q 638 66 642 66 q 651 66 669 83 q 687 100 711 131 l 732 113 q 683 47 642 18 q 602 -12 561 -12 q 535 -12 524 1 q 512 14 512 42 q 512 54 515 71 q 518 87 526 122 l 569 300 q 571 308 572 314 q 573 321 573 328 q 573 337 570 341 q 566 345 558 345 q 544 345 519 319 q 493 292 421 199 l 390 58 l 390 57 q 378 0 336 0 l 299 0 q 281 0 274 2 q 267 5 267 10 q 267 18 271 39 q 272 46 273 50 l 325 297 q 327 306 328 314 q 329 323 329 331 q 329 338 326 342 q 323 345 316 345 q 302 345 276 318 q 250 291 179 197 z"},"#":{"x_min":0,"x_max":769,"ha":769,"o":"m 344 416 l 300 293 l 429 293 l 472 416 z m 347 715 l 452 715 l 380 512 l 504 512 l 577 715 l 681 715 l 609 512 l 747 512 l 711 415 l 575 415 l 532 294 l 675 294 l 640 198 l 498 198 l 426 -5 l 321 -5 l 393 198 l 269 198 l 196 -5 l 91 -5 l 163 198 l 22 198 l 58 294 l 198 294 l 241 415 l 93 415 l 129 512 l 275 512 z"},",":{"x_min":0,"x_max":248,"ha":248,"o":"m -46 -142 q 9 -125 35 -98 q 61 -71 61 -31 q 61 -9 42 28 q 22 66 22 87 q 22 110 41 126 q 61 142 89 142 q 126 142 147 115 q 167 89 167 40 q 167 -32 112 -93 q 56 -154 -30 -174 z"},"n":{"x_min":0,"x_max":542,"ha":542,"o":"m 326 297 q 328 305 329 312 q 330 320 330 326 q 330 335 327 340 q 324 344 316 344 q 302 344 277 318 q 251 291 180 199 l 150 58 q 141 16 133 8 q 124 0 95 0 l 56 0 q 39 0 32 2 q 25 4 25 10 q 25 16 26 25 q 27 34 30 50 l 81 300 q 83 310 84 318 q 85 325 85 328 q 85 335 83 340 q 81 344 78 344 q 68 344 27 292 l 21 283 l -1 298 q 51 370 94 406 q 136 443 168 443 q 191 443 202 429 q 213 416 213 388 q 213 379 212 370 q 211 361 209 351 l 193 266 q 259 353 315 398 q 371 443 412 443 q 437 443 449 427 q 462 411 462 379 q 462 369 460 357 q 458 345 455 330 l 395 100 q 394 94 393 89 q 392 84 392 79 q 392 73 395 70 q 397 66 401 66 q 410 66 428 83 q 446 100 470 131 l 491 113 q 442 48 401 18 q 360 -12 319 -12 q 293 -12 282 0 q 271 13 271 42 q 271 64 284 120 l 284 122 z"},"h":{"x_min":0,"x_max":525,"ha":525,"o":"m 310 297 q 312 305 313 312 q 314 320 314 326 q 314 335 310 340 q 307 345 299 345 q 286 345 261 320 q 236 294 163 199 l 134 60 l 134 58 q 122 0 80 0 l 41 0 q 25 0 17 3 q 9 6 9 12 q 9 21 10 31 q 12 41 14 51 l 127 588 q 128 595 129 600 q 130 605 130 609 q 130 619 127 624 q 124 629 119 629 q 112 629 103 627 q 94 625 84 622 l 75 648 l 93 655 q 242 712 257 712 q 262 712 265 708 q 269 704 269 698 q 269 697 268 693 q 268 688 266 681 l 177 266 q 242 352 299 397 q 355 442 396 442 q 421 442 433 426 q 446 410 446 379 q 446 369 444 357 q 442 345 439 330 l 379 100 q 377 94 377 89 q 376 83 376 79 q 376 73 378 70 q 381 66 385 66 q 394 66 412 83 q 430 100 454 131 l 475 113 q 426 48 385 18 q 344 -12 303 -12 q 278 -12 266 0 q 255 13 255 42 q 255 64 268 120 l 268 122 z"},"z":{"x_min":0,"x_max":492,"ha":492,"o":"m 32 86 q 93 113 125 121 q 158 130 190 130 q 234 130 287 111 q 339 92 351 92 q 366 92 380 101 q 394 110 406 127 l 430 112 q 397 52 357 23 q 316 -6 266 -6 q 240 -6 209 4 q 179 14 136 38 q 132 40 126 43 q 88 65 64 65 q 49 65 41 59 q 33 53 33 43 q 33 41 35 35 q 36 28 36 24 q 36 12 28 3 q 19 -6 7 -6 q -5 -6 -13 4 q -21 15 -21 31 q -21 75 18 119 q 58 163 136 208 q 167 226 266 270 q 366 315 403 359 q 339 329 305 319 q 271 308 243 308 q 206 308 160 330 q 114 351 100 351 q 83 351 55 330 q 52 328 51 327 l 30 344 q 68 395 104 418 q 140 441 180 441 q 223 441 286 409 q 300 402 306 399 q 324 390 339 386 q 354 382 367 382 q 382 382 390 387 q 399 392 403 403 q 404 407 406 414 q 414 441 435 441 q 448 441 455 433 q 462 425 462 409 q 462 372 412 321 q 363 270 280 224 q 243 204 173 175 q 61 128 32 86 z"},"B":{"x_min":0,"x_max":687,"ha":687,"o":"m 264 350 l 218 133 q 217 127 216 120 q 215 113 215 108 q 215 78 235 63 q 255 49 298 49 q 379 49 428 97 q 476 145 476 225 q 476 286 435 318 q 395 350 318 350 z m 319 617 l 273 393 l 336 393 q 418 393 462 425 q 506 457 506 517 q 506 570 474 595 q 442 620 373 620 q 361 620 348 619 q 334 619 319 617 z m -48 0 l -38 49 q 19 49 44 70 q 69 91 82 152 l 160 519 q 163 533 165 544 q 166 555 166 563 q 166 597 146 610 q 126 624 73 625 l 82 669 l 397 669 q 525 669 588 633 q 651 596 651 522 q 651 463 608 425 q 565 386 479 368 q 554 347 590 307 q 626 268 626 207 q 626 114 546 57 q 467 0 334 0 z"},"K":{"x_min":0,"x_max":793,"ha":793,"o":"m -48 0 l -38 46 q 19 47 44 69 q 69 91 82 152 l 160 519 q 163 533 165 544 q 166 555 166 563 q 166 597 146 611 q 125 625 73 625 l 82 669 l 433 669 l 424 625 q 367 625 343 608 q 319 591 308 540 l 269 362 l 564 552 q 578 561 585 572 q 592 582 592 593 q 592 607 579 615 q 566 624 543 625 l 553 669 l 841 669 l 831 625 q 752 617 616 526 q 590 509 576 500 l 414 396 l 606 132 q 639 86 671 65 q 704 44 741 44 l 744 44 l 735 0 l 536 0 l 301 324 l 255 294 l 224 143 q 222 132 220 122 q 219 111 219 101 q 219 71 237 60 q 254 48 309 46 l 300 0 z"},"R":{"x_min":0,"x_max":681,"ha":681,"o":"m -48 0 l -38 46 q 19 47 44 69 q 69 91 82 152 l 160 519 q 163 533 165 544 q 166 555 166 563 q 166 597 146 610 q 126 624 73 625 l 82 669 l 352 669 q 496 669 563 628 q 631 586 631 499 q 631 429 587 381 q 542 333 459 312 l 522 155 q 546 94 572 70 q 598 46 636 46 l 643 46 l 634 0 q 618 -3 602 -4 q 585 -6 567 -6 q 486 -6 436 42 q 385 89 348 203 l 322 283 q 306 282 289 281 q 272 281 253 280 l 224 143 q 221 128 220 120 q 219 111 219 106 q 219 74 238 62 q 257 49 319 46 l 309 0 z m 264 331 l 284 331 q 379 331 431 378 q 483 424 483 509 q 483 566 449 593 q 416 619 342 619 l 325 619 z"},"T":{"x_min":0,"x_max":713,"ha":713,"o":"m 113 0 l 123 46 q 179 47 204 69 q 230 91 243 152 l 343 622 l 267 622 q 203 622 165 598 q 128 574 99 515 l 46 515 l 93 708 l 125 708 q 128 685 142 677 q 155 669 197 669 l 631 669 q 681 669 701 678 q 721 687 735 708 l 771 708 l 729 513 l 685 519 q 675 576 649 599 q 624 622 567 622 l 487 622 l 385 143 q 382 130 381 120 q 380 111 380 104 q 380 72 397 60 q 414 48 470 46 l 461 0 z"},"P":{"x_min":0,"x_max":667,"ha":667,"o":"m -48 0 l -38 46 q 19 47 44 69 q 69 91 82 152 l 160 519 q 163 533 165 544 q 166 555 166 563 q 166 597 146 610 q 126 624 73 625 l 82 669 l 378 669 q 450 669 490 663 q 530 657 555 644 q 607 617 633 575 q 659 533 659 474 q 659 417 630 366 q 602 315 549 280 q 517 258 477 247 q 438 236 395 236 q 379 236 359 238 q 338 241 309 246 l 318 289 q 321 289 326 288 q 331 288 340 288 q 419 288 464 344 q 508 399 508 500 q 508 561 474 590 q 440 619 370 619 q 360 619 349 618 q 337 618 325 616 l 224 143 q 221 129 220 120 q 219 111 219 104 q 219 72 236 60 q 253 48 309 46 l 300 0 z"},"|":{"x_min":0,"x_max":500,"ha":500,"o":"m 200 764 l 301 764 l 301 -236 l 200 -236 z"},"t":{"x_min":0,"x_max":304,"ha":304,"o":"m 85 387 l 29 387 l 37 414 q 85 427 134 469 q 182 512 225 581 l 252 581 q 242 556 232 520 q 223 483 211 431 l 291 431 l 282 387 l 202 387 l 142 85 q 142 83 141 82 q 141 80 141 77 q 141 69 145 65 q 148 60 155 60 q 167 60 187 75 q 208 90 235 119 l 252 102 q 199 42 159 17 q 120 -9 82 -9 q 50 -9 34 6 q 17 21 17 50 q 17 60 19 74 q 21 88 25 105 z"},"M":{"x_min":0,"x_max":900,"ha":900,"o":"m -52 0 l -42 46 q -5 47 21 73 q 46 100 63 154 l 174 519 q 180 537 182 549 q 185 560 185 567 q 185 599 163 612 q 141 625 86 625 l 95 669 l 348 669 l 409 193 l 704 669 l 948 669 l 939 625 q 883 625 858 604 q 833 583 819 519 l 743 162 q 739 145 737 131 q 735 117 735 107 q 735 74 754 61 q 773 48 828 46 l 818 0 l 487 0 l 497 46 q 548 51 570 71 q 592 90 604 147 l 694 564 l 344 0 l 303 0 l 235 548 l 134 218 q 124 185 118 158 q 113 131 113 117 q 113 85 131 70 q 150 55 202 46 l 193 0 z"},"g":{"x_min":0,"x_max":453,"ha":453,"o":"m 78 -47 q 37 -60 13 -84 q -11 -109 -11 -138 q -11 -170 27 -191 q 65 -212 127 -212 q 179 -212 210 -202 q 241 -191 241 -175 q 241 -159 181 -123 q 121 -87 78 -47 z m 138 206 q 138 163 152 138 q 166 114 190 114 q 203 114 213 123 q 223 132 234 155 q 253 196 263 240 q 273 285 273 328 q 273 372 262 392 q 252 412 229 412 q 196 412 167 350 q 138 288 138 206 z m 119 76 q 71 95 45 134 q 18 172 18 222 q 18 265 42 309 q 66 352 109 387 q 147 417 194 434 q 241 450 291 450 q 317 450 349 447 q 381 443 420 436 l 420 374 q 411 376 401 377 q 391 378 379 378 l 366 378 q 376 357 382 336 q 387 314 387 293 q 387 231 347 181 q 307 130 234 98 q 215 90 184 80 q 143 67 143 54 q 143 44 163 27 q 184 10 222 -13 q 230 -18 246 -27 q 347 -88 347 -135 q 347 -182 281 -212 q 214 -242 107 -242 q 5 -242 -60 -219 q -124 -196 -124 -162 q -124 -130 -79 -95 q -34 -61 60 -21 q 57 -14 56 -8 q 54 -1 54 5 q 54 29 71 47 q 87 65 119 76 z"},"j":{"x_min":0,"x_max":282,"ha":282,"o":"m 32 299 l 11 318 q 63 385 103 416 q 143 447 177 447 q 196 447 206 433 q 217 419 217 394 q 217 383 216 373 q 215 363 213 354 l 153 67 q 121 -88 57 -164 q -7 -240 -105 -240 q -152 -240 -178 -224 q -204 -208 -204 -179 q -204 -154 -186 -137 q -168 -120 -142 -120 q -124 -120 -111 -126 q -98 -133 -83 -151 q -78 -157 -71 -168 q -59 -187 -49 -187 q -31 -187 -20 -163 q -8 -139 11 -50 l 92 337 q 92 338 93 340 q 94 346 94 349 q 94 351 92 353 q 90 355 88 355 q 79 355 48 317 q 38 306 32 299 z m 143 583 q 143 624 167 652 q 190 679 224 679 q 249 679 264 663 q 279 647 279 620 q 279 579 256 552 q 233 524 199 524 q 173 524 158 540 q 143 556 143 583 z"},"i":{"x_min":0,"x_max":308,"ha":308,"o":"m 148 583 q 148 624 171 652 q 194 679 228 679 q 253 679 268 663 q 283 647 283 620 q 283 579 260 551 q 238 524 204 524 q 179 524 163 540 q 148 556 148 583 z m 257 92 q 214 40 175 15 q 136 -9 96 -9 q 66 -9 52 7 q 37 22 37 54 q 37 67 39 81 q 41 94 44 109 l 93 320 q 93 321 94 324 q 95 332 95 335 q 95 343 92 348 q 88 352 82 352 q 74 352 60 338 q 46 325 28 299 l 7 315 q 53 378 94 412 q 135 445 166 445 q 190 445 205 428 q 220 411 220 383 q 220 371 218 353 q 215 335 209 310 l 157 87 q 156 85 156 83 q 156 82 156 78 q 156 70 160 65 q 165 60 172 60 q 181 60 199 73 q 217 86 239 110 z"},"y":{"x_min":0,"x_max":466,"ha":466,"o":"m -68 -241 l -62 -213 q -15 -208 5 -198 q 25 -188 41 -164 q 53 -145 69 -108 q 85 -71 100 -25 q 108 0 112 31 q 116 62 116 113 q 116 225 102 292 q 88 359 66 359 q 57 359 45 349 q 34 340 19 320 l -6 331 q 24 385 63 417 q 102 448 137 448 q 183 448 207 380 q 232 311 232 185 q 232 157 230 118 q 229 79 225 31 l 234 52 q 328 262 328 312 q 328 330 318 350 q 307 370 307 381 q 307 410 327 429 q 346 448 377 448 q 406 448 425 431 q 443 414 443 388 q 443 340 354 199 q 311 129 286 87 q 230 -9 195 -87 q 159 -165 159 -185 q 159 -203 210 -213 l 211 -213 l 206 -241 z"},"@":{"x_min":0,"x_max":986,"ha":986,"o":"m 574 156 q 544 107 509 83 q 473 60 430 60 q 361 60 322 104 q 282 149 282 227 q 282 283 307 335 q 331 388 377 431 q 411 462 449 479 q 488 495 528 495 q 575 495 601 473 q 628 451 636 406 l 660 486 l 753 486 l 668 184 l 667 181 q 660 152 660 138 q 660 115 670 102 q 680 89 697 89 q 713 89 738 101 q 764 113 786 132 q 836 175 863 238 q 890 301 890 377 q 890 511 798 595 q 706 678 559 678 q 492 678 431 660 q 371 641 320 605 q 235 546 190 454 q 144 363 144 251 q 144 87 247 -9 q 350 -105 523 -105 q 604 -105 679 -80 q 754 -56 829 -4 l 848 -29 q 774 -84 693 -112 q 611 -139 523 -139 q 432 -139 353 -117 q 275 -94 218 -52 q 144 3 104 84 q 65 165 65 261 q 65 337 90 407 q 116 477 165 536 q 236 621 334 667 q 433 712 547 712 q 717 712 820 620 q 922 527 922 374 q 922 295 893 228 q 864 160 810 111 q 781 85 748 72 q 715 58 681 58 q 633 58 605 83 q 578 109 574 156 z m 546 463 q 516 463 491 441 q 466 419 442 371 q 414 315 399 266 q 385 217 385 177 q 385 138 402 115 q 418 93 447 93 q 478 93 508 123 q 537 153 564 212 q 583 257 595 302 q 606 348 606 382 q 606 421 590 442 q 575 463 546 463 z"},".":{"x_min":0,"x_max":248,"ha":248,"o":"m 159 76 q 159 42 135 17 q 112 -9 81 -9 q 53 -9 36 9 q 18 27 18 56 q 18 90 41 115 q 64 140 96 140 q 124 140 142 122 q 159 104 159 76 z"},"p":{"x_min":0,"x_max":497,"ha":497,"o":"m 181 203 l 163 117 q 161 104 160 96 q 159 88 159 81 q 159 57 173 42 q 186 28 208 28 q 253 28 289 100 q 324 171 324 273 q 324 304 317 321 q 309 338 296 338 q 280 338 248 301 q 216 264 181 203 z m -128 -241 l -122 -213 l -111 -213 q -63 -213 -41 -189 q -18 -166 0 -84 l 80 292 q 83 307 85 317 q 87 328 87 334 q 87 343 84 349 q 81 355 76 355 q 62 355 43 339 q 23 322 -8 284 l -29 300 q 34 377 77 411 q 119 444 153 444 q 181 444 195 427 q 210 409 210 377 q 210 358 207 334 q 204 310 198 281 q 265 372 302 408 q 338 444 362 444 q 396 444 420 398 q 445 353 445 286 q 445 225 424 169 q 403 113 363 70 q 326 29 283 9 q 240 -12 192 -12 q 182 -12 168 -9 q 154 -6 138 0 l 113 -116 q 111 -125 110 -134 q 109 -143 109 -152 q 109 -185 126 -199 q 144 -213 183 -213 l 197 -213 l 191 -241 z"},"X":{"x_min":0,"x_max":759,"ha":759,"o":"m -70 0 l -60 46 q -12 51 35 77 q 82 104 142 161 l 321 332 l 198 534 q 161 595 137 610 q 113 625 75 625 l 63 625 l 72 669 l 415 669 l 405 625 l 396 625 q 367 625 351 616 q 336 606 336 589 q 336 581 339 572 q 343 562 350 550 l 425 425 l 574 563 q 581 569 585 577 q 589 584 589 591 q 589 608 573 617 q 556 625 521 625 l 531 669 l 800 669 l 791 625 l 788 625 q 750 625 709 605 q 669 585 624 544 l 450 383 l 610 117 q 633 80 655 62 q 676 45 701 45 q 703 45 706 45 q 709 46 711 46 l 701 0 l 394 0 l 404 46 q 432 47 445 56 q 458 65 458 84 q 458 93 453 106 q 448 119 439 134 l 347 289 l 200 149 q 176 125 168 113 q 160 100 160 87 q 160 70 177 58 q 194 47 222 46 l 212 0 z"},"*":{"x_min":0,"x_max":556,"ha":556,"o":"m 307 669 l 345 502 l 513 516 l 526 475 l 384 393 l 451 241 l 412 216 l 289 323 l 165 216 l 127 241 l 194 393 l 52 475 l 65 516 l 233 502 l 271 669 z"},"Y":{"x_min":0,"x_max":639,"ha":639,"o":"m 77 0 l 87 46 q 143 47 169 69 q 194 91 207 152 l 232 276 l 99 567 q 86 594 66 608 q 46 621 13 625 l 22 669 l 306 669 l 296 625 q 271 624 258 615 q 245 606 245 590 q 245 583 246 577 q 248 572 250 567 l 357 333 l 536 530 q 550 546 556 557 q 561 568 561 580 q 561 598 545 610 q 528 621 497 625 l 506 669 l 730 669 l 720 625 q 680 614 598 525 l 592 518 l 378 283 l 349 143 q 346 129 345 120 q 344 111 344 104 q 344 72 361 60 q 377 49 439 46 l 429 0 z"},"c":{"x_min":0,"x_max":348,"ha":348,"o":"m 293 90 q 255 38 210 12 q 165 -14 112 -14 q 54 -14 23 20 q -8 53 -8 116 q -8 161 8 210 q 23 259 53 308 q 90 370 146 407 q 203 445 257 445 q 288 445 308 427 q 329 410 329 385 q 329 360 315 345 q 300 330 276 330 q 247 330 221 353 q 195 376 183 376 q 157 376 134 311 q 111 245 111 158 q 111 107 129 81 q 146 54 181 54 q 201 54 221 65 q 241 76 274 107 z"},"!":{"x_min":0,"x_max":338,"ha":338,"o":"m 120 181 l 159 584 q 163 623 166 637 q 168 651 172 655 q 179 663 196 666 q 213 669 253 669 q 287 669 300 661 q 313 654 313 636 q 313 627 308 610 q 304 593 292 559 l 159 181 z m 188 76 q 188 42 164 17 q 140 -9 109 -9 q 81 -9 63 9 q 46 27 46 56 q 46 89 70 115 q 93 140 125 140 q 153 140 170 122 q 188 104 188 76 z"},"/":{"x_min":0,"x_max":278,"ha":278,"o":"m -55 -93 l 244 683 l 302 683 l 5 -93 z"},"[":{"x_min":0,"x_max":445,"ha":445,"o":"m 159 -152 q 158 -160 157 -167 q 156 -174 156 -181 q 156 -211 174 -223 q 193 -235 241 -235 q 245 -235 253 -234 q 261 -234 266 -234 l 257 -278 l 16 -278 l 208 669 l 425 669 l 417 628 q 358 627 335 610 q 312 592 298 527 z"},"6":{"x_min":0,"x_max":495,"ha":495,"o":"m 229 370 q 250 379 268 384 q 287 388 302 388 q 356 388 392 349 q 428 310 428 251 q 428 201 407 150 q 387 99 351 61 q 316 24 275 5 q 233 -14 188 -14 q 112 -14 70 39 q 28 91 28 186 q 28 274 72 365 q 116 456 196 531 q 263 594 341 632 q 419 670 500 678 l 497 646 q 400 606 336 540 q 271 474 229 370 z m 197 304 q 167 228 153 173 q 138 119 138 81 q 138 55 150 42 q 162 28 184 28 q 208 28 226 50 q 243 73 266 137 q 282 180 291 220 q 300 260 300 283 q 300 307 290 318 q 281 329 261 329 q 250 329 233 323 q 217 316 197 304 z"},"r":{"x_min":0,"x_max":361,"ha":361,"o":"m 25 293 l 4 308 q 50 373 92 409 q 133 445 161 445 q 177 445 184 436 q 190 427 190 403 q 190 377 184 328 q 177 278 165 209 l 169 209 q 225 349 260 397 q 295 445 334 445 q 353 445 362 434 q 372 423 372 402 q 372 361 357 339 q 343 317 315 317 q 312 317 303 317 q 294 318 289 318 q 249 318 216 251 q 184 185 153 40 l 147 15 q 145 6 139 3 q 134 0 116 0 l 63 0 q 41 0 36 3 q 31 6 31 14 q 31 16 31 18 q 32 20 32 22 l 69 242 q 75 276 79 299 q 82 322 82 329 q 82 338 81 342 q 80 346 77 346 q 70 346 59 334 q 47 322 25 293 z"},"2":{"x_min":0,"x_max":495,"ha":495,"o":"m -19 0 l -19 51 q 150 208 234 329 q 318 450 318 535 q 318 573 300 594 q 281 616 249 616 q 212 616 183 591 q 154 565 127 508 l 87 508 q 108 593 160 638 q 211 683 288 683 q 362 683 408 643 q 453 602 453 536 q 453 474 396 399 q 338 325 118 131 l 248 131 q 306 131 325 142 q 345 153 351 183 l 388 183 l 355 0 z"},"{":{"x_min":0,"x_max":500,"ha":500,"o":"m 416 740 l 416 710 q 357 709 335 684 q 314 658 314 581 l 314 516 q 314 406 288 366 q 262 326 192 310 q 262 294 288 255 q 314 215 314 105 l 314 39 q 314 -38 335 -63 q 357 -89 416 -90 l 416 -119 q 301 -119 260 -84 q 218 -48 218 50 l 218 144 q 218 225 190 255 q 163 285 87 292 l 87 329 q 163 336 190 366 q 218 396 218 477 l 218 571 q 218 669 260 705 q 301 740 416 740 z"},"9":{"x_min":0,"x_max":495,"ha":495,"o":"m 288 366 q 313 427 327 481 q 341 535 341 573 q 341 607 330 624 q 318 640 295 640 q 273 640 257 623 q 241 605 226 565 q 207 514 196 466 q 185 417 185 388 q 185 364 194 352 q 204 340 223 340 q 236 340 252 346 q 268 353 288 366 z m 259 300 q 234 290 216 285 q 197 280 182 280 q 127 280 92 319 q 56 358 56 419 q 56 468 74 517 q 93 565 125 602 q 160 642 203 662 q 246 682 294 682 q 369 682 411 628 q 453 574 453 477 q 453 392 412 303 q 371 214 298 142 q 232 77 155 37 q 79 -3 -1 -14 l 0 18 q 95 60 158 129 q 222 198 259 300 z"}," ":{"x_min":0,"x_max":248,"ha":248,"o":""},"I":{"x_min":0,"x_max":397,"ha":397,"o":"m -43 0 l -34 46 q 22 47 48 69 q 73 91 86 152 l 164 519 q 167 533 168 544 q 170 555 170 563 q 170 597 150 611 q 130 624 78 625 l 87 669 l 440 669 l 431 625 q 373 624 349 607 q 326 590 315 540 l 231 143 q 229 130 227 121 q 226 111 226 104 q 226 72 243 60 q 259 49 316 46 l 306 0 z"},"H":{"x_min":0,"x_max":841,"ha":841,"o":"m -48 0 l -38 46 q 19 47 44 69 q 69 91 82 152 l 160 519 q 163 533 165 544 q 166 555 166 563 q 166 597 146 610 q 126 624 73 625 l 82 669 l 433 669 l 424 625 q 366 624 343 607 q 319 590 308 540 l 273 376 l 585 376 l 618 528 q 621 543 622 551 q 623 559 623 564 q 623 596 602 611 q 580 625 531 625 l 540 669 l 889 669 l 880 625 q 824 625 799 604 q 774 583 760 519 l 684 162 q 681 146 679 132 q 677 117 677 104 q 677 71 695 60 q 713 48 769 46 l 759 0 l 406 0 l 416 46 q 476 48 500 68 q 524 87 537 147 l 572 313 l 260 313 l 224 143 q 221 129 220 120 q 219 111 219 104 q 219 72 236 60 q 253 48 309 46 l 300 0 z"},"4":{"x_min":0,"x_max":495,"ha":495,"o":"m 225 270 q 241 332 260 396 q 280 460 305 531 l 75 270 z m 167 -14 l 205 174 l 3 174 l 22 270 l 384 682 l 430 682 l 347 270 l 453 270 l 433 174 l 327 174 l 289 -14 z"},"~":{"x_min":0,"x_max":833,"ha":833,"o":"m 747 392 l 747 284 q 696 250 651 233 q 606 217 562 217 q 540 217 517 221 q 495 225 472 232 q 460 236 438 244 q 331 281 275 281 q 233 281 188 262 q 143 244 87 204 l 87 312 q 139 347 187 365 q 234 382 276 382 q 333 382 418 354 l 420 353 q 429 350 447 344 q 522 317 564 317 q 605 317 649 335 q 693 353 747 392 z"},"D":{"x_min":0,"x_max":840,"ha":840,"o":"m 327 624 l 227 145 q 224 129 223 121 q 222 113 222 107 q 222 73 242 61 q 261 48 318 48 q 467 48 557 139 q 647 230 647 381 q 647 502 574 563 q 500 624 355 624 l 337 624 z m -46 0 l -36 48 q 21 48 46 69 q 71 90 84 152 l 162 519 q 165 531 166 542 q 167 553 167 563 q 167 597 147 611 q 127 624 75 624 l 84 669 l 422 669 q 608 669 706 595 q 803 521 803 379 q 803 297 773 228 q 742 158 685 108 q 651 79 611 57 q 571 36 526 23 q 485 11 441 6 q 396 0 329 0 l 275 0 z"},"^":{"x_min":0,"x_max":1000,"ha":1000,"o":"m 442 714 l 557 714 l 797 438 l 742 438 l 499 620 l 256 438 l 201 438 z"},"0":{"x_min":0,"x_max":495,"ha":495,"o":"m 140 121 q 140 73 150 51 q 161 30 184 30 q 206 30 225 52 q 244 75 265 125 q 281 165 295 215 q 309 266 323 341 q 335 403 341 452 q 347 501 347 536 q 347 591 337 614 q 326 637 302 637 q 278 637 258 608 q 237 579 216 518 q 199 468 185 409 q 170 351 159 283 q 149 224 145 185 q 140 147 140 121 z m 181 -14 q 106 -14 62 52 q 17 119 17 232 q 17 325 54 424 q 91 522 153 595 q 189 637 230 660 q 271 682 312 682 q 381 682 425 615 q 469 549 469 442 q 469 355 445 273 q 421 190 376 121 q 334 58 282 22 q 229 -14 181 -14 z"},"F":{"x_min":0,"x_max":642,"ha":642,"o":"m -48 0 l -38 46 q 19 47 44 69 q 69 91 82 152 l 160 519 q 163 533 165 544 q 166 555 166 563 q 166 597 146 610 q 126 624 73 625 l 82 669 l 657 669 l 623 503 l 569 503 l 569 518 q 569 573 540 596 q 510 619 441 619 l 325 619 l 272 366 l 402 366 q 457 366 486 382 q 514 397 525 433 l 569 433 l 526 219 l 479 219 q 479 223 480 229 q 483 254 483 262 q 483 290 460 303 q 438 316 391 316 l 261 316 l 227 157 q 224 141 222 126 q 220 112 220 102 q 220 60 303 48 q 311 47 316 46 l 309 0 z"},"`":{"x_min":0,"x_max":500,"ha":500,"o":"m 364 497 l 313 497 l 186 591 q 169 604 162 613 q 155 623 155 632 q 155 650 167 662 q 178 674 196 674 q 208 674 220 667 q 231 660 244 644 z"},"k":{"x_min":0,"x_max":530,"ha":530,"o":"m 173 231 q 177 231 185 230 q 192 230 196 230 q 267 230 310 257 q 353 283 353 325 q 353 340 344 351 q 335 362 323 362 q 299 362 260 328 q 222 294 173 231 z m 125 588 q 126 596 127 601 q 128 606 128 609 q 128 618 125 624 q 122 629 116 629 q 109 629 101 627 q 93 625 82 622 l 72 648 q 110 662 168 684 q 237 711 249 711 q 257 711 261 707 q 265 704 265 696 q 265 695 264 686 q 263 683 263 681 l 181 286 q 258 367 311 406 q 363 445 394 445 q 426 445 448 419 q 471 393 471 356 q 471 302 426 266 q 380 230 296 216 q 310 199 332 167 q 374 104 403 88 l 460 138 l 477 122 l 360 0 l 351 0 q 328 0 306 13 q 285 26 262 54 q 245 75 215 127 q 185 179 163 201 l 134 60 q 125 16 116 8 q 108 0 80 0 l 41 0 q 25 0 17 3 q 9 6 9 12 q 9 18 10 26 q 11 34 14 51 z"},"u":{"x_min":0,"x_max":535,"ha":535,"o":"m 296 197 q 229 99 169 42 q 109 -14 72 -14 q 51 -14 41 -2 q 31 10 31 34 q 31 44 33 62 q 36 80 41 103 l 81 302 q 84 317 85 326 q 87 335 87 339 q 87 345 84 349 q 82 352 78 352 q 73 352 62 340 q 51 328 28 297 l 8 312 q 62 388 96 416 q 131 443 168 443 q 191 443 204 430 q 216 417 216 392 q 216 377 202 311 l 201 306 l 167 148 q 165 139 164 131 q 163 124 163 119 q 163 110 166 105 q 169 100 175 100 q 191 100 233 156 q 275 212 315 295 l 333 376 q 333 378 335 384 q 347 439 388 439 l 424 439 q 439 439 448 435 q 456 432 456 425 q 456 416 451 390 q 450 386 450 384 l 399 124 q 398 120 397 111 q 395 103 395 100 q 395 93 397 89 q 400 85 404 85 q 413 85 426 96 q 439 107 466 140 l 485 122 q 434 57 387 21 q 340 -14 306 -14 q 288 -14 278 -3 q 268 9 268 30 q 268 41 270 54 q 271 67 274 81 z"},"]":{"x_min":0,"x_max":445,"ha":445,"o":"m 231 543 q 232 551 233 558 q 234 566 234 573 q 234 603 216 614 q 197 626 150 626 q 146 626 137 625 q 128 625 124 625 l 133 669 l 375 669 l 182 -278 l -35 -278 l -27 -237 q 33 -236 56 -219 q 80 -201 93 -136 z"},"U":{"x_min":0,"x_max":814,"ha":814,"o":"m 155 519 q 158 534 160 544 q 161 555 161 563 q 161 597 141 611 q 122 624 69 625 l 78 669 l 429 669 l 419 625 q 362 624 338 607 q 315 590 304 540 l 237 229 q 234 214 232 199 q 231 184 231 169 q 231 110 274 76 q 317 42 392 42 q 438 42 479 56 q 521 70 551 96 q 583 124 603 166 q 624 208 646 316 l 672 440 q 678 469 682 496 q 685 523 685 543 q 685 582 665 601 q 644 620 599 623 l 609 669 l 855 669 l 846 623 q 798 623 771 590 q 745 557 727 471 l 691 299 q 669 197 648 152 q 627 106 594 71 q 554 29 495 7 q 437 -16 368 -16 q 235 -16 163 37 q 92 91 92 190 q 92 208 94 225 q 96 242 99 258 z"},"o":{"x_min":0,"x_max":444,"ha":444,"o":"m 116 157 q 116 97 131 64 q 145 31 171 31 q 208 31 242 100 q 276 170 276 259 q 276 324 260 360 q 245 395 217 395 q 177 395 147 326 q 116 256 116 157 z m -7 137 q -7 204 20 262 q 46 320 97 364 q 141 402 188 422 q 235 443 278 443 q 336 443 367 404 q 398 365 398 293 q 398 241 383 196 q 368 150 336 109 q 292 51 231 17 q 170 -16 110 -16 q 53 -16 23 23 q -7 62 -7 137 z"},"N":{"x_min":0,"x_max":818,"ha":818,"o":"m -44 0 l -34 46 q 21 48 48 76 q 74 104 91 182 l 175 577 q 164 600 139 612 q 114 624 73 625 l 83 669 l 271 669 l 622 183 l 677 440 q 683 469 687 496 q 690 523 690 543 q 690 582 669 601 q 648 620 603 623 l 613 669 l 860 669 l 850 623 q 802 623 776 590 q 750 558 732 471 l 658 128 q 650 90 644 56 q 637 22 633 -7 l 587 -7 l 209 515 l 149 229 q 143 199 139 175 q 136 150 136 133 q 136 90 156 71 q 175 52 227 46 l 217 0 z"},"+":{"x_min":0,"x_max":833,"ha":833,"o":"m 367 596 l 466 596 l 466 347 l 709 347 l 709 250 l 466 250 l 466 0 l 367 0 l 367 250 l 124 250 l 124 347 l 367 347 z"},"G":{"x_min":0,"x_max":843,"ha":843,"o":"m 724 23 q 642 4 563 -5 q 484 -15 410 -15 q 235 -15 136 66 q 37 147 37 290 q 37 362 64 429 q 91 497 143 551 q 205 616 292 650 q 380 683 488 683 q 547 683 613 673 q 679 663 752 643 l 755 474 l 711 474 q 681 550 622 591 q 562 632 484 632 q 422 632 370 608 q 319 583 277 534 q 234 484 212 417 q 190 350 190 272 q 190 155 247 93 q 304 30 409 30 q 481 30 523 67 q 564 105 564 170 q 564 197 550 212 q 535 226 504 230 l 513 275 l 797 275 l 787 230 q 754 225 737 212 q 720 199 707 166 q 700 148 695 123 q 690 98 690 81 q 690 70 699 65 q 708 60 731 60 z"},"q":{"x_min":0,"x_max":455,"ha":455,"o":"m 226 163 l 272 378 l 264 378 q 189 378 136 313 q 83 249 83 160 q 83 129 95 110 q 107 90 125 90 q 146 90 184 125 l 185 126 z m 215 113 l 164 66 q 124 29 96 12 q 69 -6 53 -6 q 23 -6 5 21 q -12 48 -12 95 q -12 179 27 249 q 66 320 147 380 q 190 413 241 429 q 293 445 353 445 q 365 445 397 443 q 403 443 406 443 l 284 -112 q 280 -132 278 -142 q 276 -152 276 -155 q 276 -183 297 -198 q 317 -214 354 -214 q 356 -214 362 -213 q 368 -213 370 -213 l 364 -241 l 46 -241 l 51 -213 l 62 -213 q 109 -213 132 -189 q 155 -165 173 -83 z"},"d":{"x_min":0,"x_max":476,"ha":476,"o":"m 244 202 l 268 315 q 254 358 241 378 q 227 397 210 397 q 175 397 145 319 q 115 242 115 140 q 115 116 121 103 q 126 90 136 90 q 153 90 180 118 q 208 147 244 202 z m 231 137 q 175 62 136 27 q 97 -9 71 -9 q 36 -9 14 25 q -8 59 -8 116 q -8 180 19 240 q 46 299 107 366 q 142 405 175 426 q 208 447 232 447 q 249 447 261 440 q 273 433 288 415 l 327 597 q 327 598 328 600 q 329 611 329 616 q 329 623 326 627 q 324 631 319 631 q 314 631 307 629 q 299 627 284 622 l 272 649 q 372 690 403 702 q 435 714 442 714 q 449 714 455 709 q 460 705 460 699 q 460 692 459 685 q 458 677 456 668 l 338 96 q 337 91 336 89 q 336 86 336 85 q 336 81 338 78 q 339 76 343 76 q 352 76 367 90 q 382 104 400 129 l 419 113 q 376 53 337 22 q 297 -9 265 -9 q 242 -9 231 5 q 219 20 219 47 q 219 61 222 84 q 225 107 231 137 z"},"1":{"x_min":0,"x_max":495,"ha":495,"o":"m 58 0 l 67 39 q 113 43 133 61 q 153 78 164 131 l 247 521 q 177 479 145 464 q 113 448 87 441 l 98 490 q 162 514 224 561 q 286 607 352 681 l 408 681 l 294 146 q 291 131 289 119 q 287 106 287 100 q 287 73 306 58 q 325 43 365 39 l 357 0 z"},"5":{"x_min":0,"x_max":495,"ha":495,"o":"m 134 304 l 111 328 l 199 669 l 366 669 q 406 669 419 676 q 431 682 436 699 l 472 698 l 441 545 l 212 545 l 183 434 q 207 439 222 442 q 238 444 248 444 q 308 444 346 405 q 384 366 384 304 q 384 249 358 192 q 333 135 288 88 q 238 37 183 12 q 128 -13 64 -13 q 26 -13 4 3 q -18 20 -18 48 q -18 73 -3 88 q 12 103 37 103 q 49 103 61 99 q 72 94 92 82 q 97 79 105 73 q 132 53 153 53 q 192 53 228 113 q 263 172 263 244 q 263 286 247 308 q 231 329 199 329 q 184 329 168 323 q 152 317 134 304 z"}}}
